# xmcd
#
# Track frame offsets: 
#        150
#        11650
#        26812
#        44139
#        56425
#        70747
#        88797
#        102799
#        113865
#        127841
#        142483
#        159684
#        176723
#
# Disc length: 2613 seconds
#
# Revision: 2
# Processed by: cddbd v1.5.2PL0 Copyright (c) Steve Scherf et al.
# Submitted via: ExactAudioCopy v0.95b4
#
DISCID=bb0a330d
DTITLE=The Little Willies - The Little Willies
DYEAR=2005
DGENRE=Country
TTITLE0=Roly Poly
TTITLE1=I'll Never Get Out Of This World Alive
TTITLE2=Love Me
TTITLE3=It's Not You It's Me
TTITLE4=Best Of All Possible Worlds
TTITLE5=No Place To Fall
TTITLE6=Roll On
TTITLE7=I Gotta Get Drunk
TTITLE8=Streets Of Baltimore
TTITLE9=Easy As The Rain
TTITLE10=Tennessee Stud
TTITLE11=Night Life
TTITLE12=Lou Reed
EXTD=
EXTT0=
EXTT1=
EXTT2=
EXTT3=
EXTT4=
EXTT5=
EXTT6=
EXTT7=
EXTT8=
EXTT9=
EXTT10=
EXTT11=
EXTT12=
PLAYORDER=
